<svg xmlns="http://www.w3.org/2000/svg" viewBox="0 0 85.554 114.968">
  <defs>
    <style>
      .a {
        fill: #fff;
        stroke:#e8e8e8;
      }
      .band{
        fill:#fff;
      }
      .face-border{
        fill:#fff;
      }
    </style>
  </defs>
  <g class="band">
    <g>
      <path class="b" d="M61.374,95.758l-5.768,17.751H30.941l-5.53-17.022a42.293,42.293,0,0,0,35.963-.729M66.7,88.864a39.167,39.167,0,0,1-46.522,1.218l8.587,26.427H57.786l8.969-27.6-.058-.042Z" transform="translate(-0.248 -1.541)"/>
      <path class="a" d="M29.852,115.009,22.876,93.54a40.7,40.7,0,0,0,41.106-.956L56.7,115.009Z" transform="translate(-0.248 -1.541)"/>
    </g>
    <g>
      <path class="b" d="M54.789,4.541,59.58,19.287a42.277,42.277,0,0,0-34.3.165L30.124,4.541H54.789m2.179-3H27.944L20.029,25.9a39.179,39.179,0,0,1,44.76-.288L56.968,1.541Z" transform="translate(-0.248 -1.541)"/>
      <path class="a" d="M29.034,3.041H55.878L62.1,22.2a40.712,40.712,0,0,0-39.366.216Z" transform="translate(-0.248 -1.541)"/>
    </g>  
    </g>
  <g>
    <path class="face-border" d="M43.025,19.034A38.777,38.777,0,1,1,4.248,57.811,38.754,38.754,0,0,1,43.025,19.034m0-4A42.777,42.777,0,1,0,85.8,57.811,42.826,42.826,0,0,0,43.025,15.034Z" transform="translate(-0.248 -1.541)"/>
    <g>
      <path d="M42.157,89.786v4.955a.869.869,0,0,0,1.737,0V89.786A.869.869,0,0,0,42.157,89.786Z" transform="translate(-0.248 -1.541)"/>
      <path d="M26.434,85.111q-1.311,2.126-2.624,4.251c-.59.956.913,1.827,1.5.876q1.313-2.124,2.624-4.25c.591-.957-.912-1.828-1.5-.877Z" transform="translate(-0.248 -1.541)"/>
      <path d="M14.9,72.964l-4.3,2.561a.869.869,0,0,0,.877,1.5l4.3-2.561a.869.869,0,0,0-.876-1.5Z" transform="translate(-0.248 -1.541)"/>
      <path d="M10.975,56.942H6.1a.87.87,0,0,0,0,1.738h4.88A.87.87,0,0,0,10.975,56.942Z" transform="translate(-0.248 -1.541)"/>
      <path d="M15.836,41.02,11.474,38.6c-.98-.545-1.856.956-.877,1.5l4.362,2.423c.98.544,1.856-.955.877-1.5Z" transform="translate(-0.248 -1.541)"/>
      <path d="M27.685,29.589q-1.186-2.1-2.375-4.206a.869.869,0,0,0-1.5.877q1.188,2.1,2.375,4.206a.869.869,0,0,0,1.5-.877Z" transform="translate(-0.248 -1.541)"/>
      <path d="M43.894,25.773V20.881a.869.869,0,0,0-1.737,0v4.892A.869.869,0,0,0,43.894,25.773Z" transform="translate(-0.248 -1.541)"/>
      <path d="M59.9,30.6,62.24,26.26c.532-.986-.968-1.863-1.5-.877L58.4,29.727c-.53.986.969,1.863,1.5.877Z" transform="translate(-0.248 -1.541)"/>
      <path d="M71.154,42.658l4.3-2.562a.869.869,0,0,0-.876-1.5l-4.3,2.562a.87.87,0,0,0,.878,1.5Z" transform="translate(-0.248 -1.541)"/>
      <path d="M74.988,58.68h4.968a.87.87,0,0,0,0-1.738H74.988A.869.869,0,0,0,74.988,58.68Z" transform="translate(-0.248 -1.541)"/>
      <path d="M70.339,74.607l4.237,2.42a.869.869,0,0,0,.877-1.5l-4.237-2.42a.87.87,0,0,0-.877,1.5Z" transform="translate(-0.248 -1.541)"/>
      <g>
        <path class="a" d="M59.022,85.408,61.491,89.8" transform="translate(-0.248 -1.541)"/>
        <path d="M58.272,85.846q1.235,2.2,2.468,4.393a.869.869,0,0,0,1.5-.877l-2.468-4.393a.869.869,0,0,0-1.5.877Z" transform="translate(-0.248 -1.541)"/>
      </g>
    </g>
    <g>
      <g>
        <path class="a" d="M43.225,57.766H43.1" transform="translate(-0.248 -1.541)"/>
        <path d="M43.225,55.594H43.1a2.172,2.172,0,0,0,0,4.343h.122a2.172,2.172,0,1,0,0-4.343Z" transform="translate(-0.248 -1.541)"/>
      </g>
      <g>
        <path class="a" d="M43.088,57.9V38.385" transform="translate(-0.248 -1.541)"/>
        <path d="M43.522,57.9V38.385a.434.434,0,0,0-.868,0V57.9A.434.434,0,0,0,43.522,57.9Z" transform="translate(-0.248 -1.541)"/>
      </g>
      <g>
        <path d="M43.9,57.511Q42.5,44.732,41.1,31.954q-.111-1.023-.224-2.045a.435.435,0,0,0-.863.1q1.4,12.779,2.806,25.558.111,1.021.224,2.044a.435.435,0,0,0,.865-.1Z" transform="translate(-0.248 -1.541)"/>
      </g>
    </g>
  </g>
</svg>
